<svg xmlns="http://www.w3.org/2000/svg" width="348.741" height="114" viewBox="0 0 348.741 114"><g transform="translate(325.297 0)"><line y1="57.471" x2="110.705" transform="translate(-318.596 26.884)" fill="none" stroke="#e97c33" stroke-width="1.68"/><line x2="78.744" y2="47.86" transform="translate(-306.842 33.884)" fill="none" stroke="#e97c33" stroke-width="1.808"/><line x1="21.976" y2="93.796" transform="translate(-278.458 10.916)" fill="none" stroke="#e97c33" stroke-width="1.808"/><circle cx="9.227" cy="9.227" r="9.227" transform="translate(-321.392 20.044)" fill="#f1a3c7"/><circle cx="9.227" cy="9.227" r="9.227" transform="translate(-265.813 0)" fill="#87d3fb"/><circle cx="9.227" cy="9.227" r="9.227" transform="translate(-215.049 15.373)" fill="#fe042a"/><circle cx="9.227" cy="9.227" r="9.227" transform="translate(-236.254 73.09)" fill="#87d3fb"/><circle cx="9.227" cy="9.227" r="9.227" transform="translate(-325.297 72.517)" fill="#87d3fb"/><circle cx="9.227" cy="9.227" r="9.227" transform="translate(-287.685 95.484)" fill="#f6cb46"/><g transform="translate(-289.41 35.874)"><circle cx="21.94" cy="21.94" r="21.94" fill="#1133c0"/></g><g transform="translate(-168.348 11.085)"><path d="M-213.708,35.4c-5.174,0-8.892-4.17-8.892-11.3,0-7.034,3.718-11.3,8.892-11.3a8.334,8.334,0,0,1,5.527,1.658v4.22a6.234,6.234,0,0,0-4.171-1.658c-3.014,0-4.721,2.212-4.721,7.084,0,4.672,1.707,7.084,4.721,7.084a5.985,5.985,0,0,0,4.171-1.708v4.22A8,8,0,0,1-213.708,35.4Z" transform="translate(222.851 -4.299)"/><path d="M-201.976,35.6c-5.426,0-9.6-4.171-9.6-11.456,0-7.234,4.171-11.454,9.6-11.454s9.546,4.22,9.546,11.454C-192.431,31.429-196.55,35.6-201.976,35.6Zm0-18.842c-2.764,0-4.072,2.461-4.072,7.386,0,4.973,1.307,7.386,4.072,7.386s4.018-2.412,4.018-7.386C-197.958,19.22-199.215,16.759-201.976,16.759Z" transform="translate(228.703 -4.351)"/><path d="M-173.16,34.963V21.1c0-3.016-.651-4.171-2.662-4.171-1.959,0-3.366,1.91-3.666,3.971V34.963h-5.527V21.1c0-3.016-.7-4.171-2.663-4.171s-3.366,1.91-3.666,3.971V34.963h-5.527v-21.5l5.125-.6.2,3.516a7.169,7.169,0,0,1,5.979-3.617,5.347,5.347,0,0,1,5.526,3.769,7.842,7.842,0,0,1,6.331-3.769c4.623,0,6.078,3.216,6.078,7.537v14.67Z" transform="translate(236.505 -4.316)"/><path d="M-151.2,34.963V21.1c0-3.016-.652-4.171-2.663-4.171-1.959,0-3.366,1.91-3.666,3.971V34.963h-5.527V21.1c0-3.016-.7-4.171-2.663-4.171s-3.365,1.91-3.666,3.971V34.963h-5.527v-21.5l5.125-.6.2,3.516a7.171,7.171,0,0,1,5.979-3.617,5.347,5.347,0,0,1,5.526,3.769,7.843,7.843,0,0,1,6.331-3.769c4.623,0,6.078,3.216,6.078,7.537v14.67Z" transform="translate(248.157 -4.316)"/><path d="M-136.517,35.189c-2.311,0-3.87-.954-4.171-3.316a7.245,7.245,0,0,1-6.028,3.417c-4.572,0-6.281-3.216-6.281-7.537V13.084h5.527V26.9c0,3.113.854,4.22,2.812,4.22,2.111,0,3.568-1.959,3.92-3.969V13.084h5.526V31.473c0,.8.3,1.2.854,1.2a1.571,1.571,0,0,0,.856-.251v2.01A6.1,6.1,0,0,1-136.517,35.189Z" transform="translate(259.791 -4.142)"/><path d="M-125.871,34.963V21.146c0-3.117-.9-4.222-2.864-4.222S-132.3,18.886-132.6,20.9V34.963h-5.527v-21.5l5.125-.6.2,3.516a7.428,7.428,0,0,1,6.08-3.617c4.621,0,6.382,3.216,6.382,7.537v14.67Z" transform="translate(267.68 -4.316)"/><path d="M-120.927,13.019a2.9,2.9,0,0,1-2.864-2.864,2.906,2.906,0,0,1,2.864-2.913,2.916,2.916,0,0,1,2.914,2.913A2.907,2.907,0,0,1-120.927,13.019Zm-2.712,24.87v-21.6l5.526-.654V37.889Z" transform="translate(275.291 -7.242)"/><path d="M-110.809,37.3c-3.064,0-5.073-1.759-5.073-6.03V18.555h-2.461V15.139h2.461V9.865l5.526-.654v5.928h3.92v3.415h-3.92v12.41c0,1.959.452,2.763,1.759,2.763a3.568,3.568,0,0,0,2.261-.8l.553,2.714A8.069,8.069,0,0,1-110.809,37.3Z" transform="translate(278.182 -6.197)"/><path d="M-99.878,40.263c-1.206,3.166-2.965,4.572-5.576,4.572a7.414,7.414,0,0,1-2.764-.553V40.717a4.892,4.892,0,0,0,1.609.251c1.506-.1,2.463-.654,3.767-6.382l-7.034-21.5h5.175l4.422,14.669,4.32-14.669h5.076Z" transform="translate(282.675 -4.142)"/><path d="M-215.58,58.992a12.819,12.819,0,0,1-7.184-2.362l.8-3.818a10.533,10.533,0,0,0,6.281,2.411c1.808,0,2.913-1,2.913-2.613,0-1.557-1.105-2.21-3.316-2.963-4.522-1.407-6.18-3.769-6.18-7.084,0-3.366,2.311-6.431,7.335-6.431a13,13,0,0,1,6.23,1.858l-.854,3.617a9.158,9.158,0,0,0-5.175-1.759,2.315,2.315,0,0,0-2.611,2.362c0,1.407,1,2.16,2.662,2.712,4.572,1.457,6.833,3.769,6.833,6.783C-207.843,56.328-210.707,58.992-215.58,58.992Z" transform="translate(222.764 8.09)"/><path d="M-202.648,58.805c-5.175,0-8.893-4.17-8.893-11.3,0-7.034,3.718-11.3,8.893-11.3a8.324,8.324,0,0,1,5.526,1.658v4.219a6.238,6.238,0,0,0-4.17-1.658c-3.014,0-4.722,2.212-4.722,7.084,0,4.673,1.708,7.084,4.722,7.084a5.975,5.975,0,0,0,4.17-1.708V57.1A7.991,7.991,0,0,1-202.648,58.805Z" transform="translate(228.72 8.126)"/><path d="M-197.059,36.428a2.9,2.9,0,0,1-2.866-2.864,2.906,2.906,0,0,1,2.866-2.913,2.916,2.916,0,0,1,2.913,2.913A2.906,2.906,0,0,1-197.059,36.428Zm-2.714,24.87v-21.6l5.526-.652V61.3Z" transform="translate(234.886 5.182)"/><path d="M-184.89,58.874c-5.426,0-9.094-3.87-9.094-11.456,0-7.133,3.969-11.254,8.742-11.254,4.522,0,7.537,3.117,7.537,9.045a16.351,16.351,0,0,1-.251,2.913h-10.652c0,4.171,1.407,6.882,5.477,6.882a6.553,6.553,0,0,0,4.419-1.909l1.358,2.714A9.991,9.991,0,0,1-184.89,58.874Zm-.253-19.243c-1.757,0-2.913,1.558-3.415,5.376h6.23C-182.178,41.489-182.981,39.631-185.143,39.631Z" transform="translate(238.038 8.107)"/><path d="M-168.6,58.372V44.555c0-3.115-.9-4.22-2.864-4.22s-3.568,1.959-3.87,3.969V58.372h-5.526v-21.5l5.125-.6.2,3.518a7.43,7.43,0,0,1,6.08-3.619c4.623,0,6.382,3.216,6.382,7.537v14.67Z" transform="translate(245.005 8.107)"/><path d="M-158.15,58.805c-5.175,0-8.893-4.17-8.893-11.3,0-7.034,3.718-11.3,8.893-11.3a8.321,8.321,0,0,1,5.526,1.658v4.219a6.237,6.237,0,0,0-4.168-1.658c-3.016,0-4.724,2.212-4.724,7.084,0,4.673,1.708,7.084,4.724,7.084a5.971,5.971,0,0,0,4.168-1.708V57.1A7.988,7.988,0,0,1-158.15,58.805Z" transform="translate(252.336 8.126)"/><path d="M-146.855,58.874c-5.426,0-9.1-3.87-9.1-11.456,0-7.133,3.969-11.254,8.742-11.254,4.522,0,7.537,3.117,7.537,9.045a16.351,16.351,0,0,1-.251,2.913h-10.652c0,4.171,1.407,6.882,5.477,6.882a6.56,6.56,0,0,0,4.421-1.909l1.356,2.714A9.99,9.99,0,0,1-146.855,58.874Zm-.254-19.243c-1.757,0-2.913,1.558-3.415,5.376h6.23C-144.145,41.489-144.947,39.631-147.11,39.631Z" transform="translate(258.223 8.107)"/><path d="M-198.262,81.78V67.913c0-3.014-.654-4.17-2.663-4.17-1.959,0-3.366,1.909-3.668,3.969V81.78h-5.527V67.913c0-3.014-.7-4.17-2.662-4.17s-3.366,1.909-3.668,3.969V81.78h-5.526v-21.5l5.123-.6.2,3.518a7.163,7.163,0,0,1,5.977-3.617,5.348,5.348,0,0,1,5.527,3.767,7.84,7.84,0,0,1,6.331-3.767c4.621,0,6.078,3.215,6.078,7.536V81.78Z" transform="translate(223.182 20.532)"/><path d="M-183.577,82.009c-2.311,0-3.868-.955-4.17-3.317a7.244,7.244,0,0,1-6.029,3.417c-4.571,0-6.279-3.216-6.279-7.536V59.9h5.526V73.718c0,3.115.856,4.22,2.814,4.22,2.111,0,3.568-1.959,3.919-3.969V59.9h5.527V78.291c0,.8.3,1.2.853,1.2a1.55,1.55,0,0,0,.856-.251v2.01A6.1,6.1,0,0,1-183.577,82.009Z" transform="translate(234.816 20.706)"/><path d="M-178.793,82.4a12.819,12.819,0,0,1-7.184-2.362l.8-3.818a10.533,10.533,0,0,0,6.281,2.411c1.808,0,2.913-1,2.913-2.613,0-1.557-1.105-2.21-3.316-2.963-4.522-1.407-6.18-3.767-6.18-7.084,0-3.366,2.311-6.431,7.335-6.431a13,13,0,0,1,6.23,1.858l-.854,3.617a9.151,9.151,0,0,0-5.174-1.757,2.315,2.315,0,0,0-2.613,2.362c0,1.405,1,2.16,2.662,2.712,4.572,1.457,6.833,3.767,6.833,6.783C-171.056,79.737-173.92,82.4-178.793,82.4Z" transform="translate(242.288 20.514)"/><path d="M-165.658,82.282c-5.426,0-9.1-3.868-9.1-11.454,0-7.135,3.969-11.254,8.742-11.254,4.522,0,7.537,3.115,7.537,9.043a16.207,16.207,0,0,1-.251,2.913h-10.652c0,4.171,1.407,6.884,5.477,6.884a6.567,6.567,0,0,0,4.421-1.909l1.358,2.712A9.988,9.988,0,0,1-165.658,82.282Zm-.253-19.243c-1.759,0-2.914,1.558-3.417,5.376h6.232C-162.948,64.9-163.75,63.04-165.911,63.04Z" transform="translate(248.244 20.532)"/><path d="M-145.18,82.009c-2.311,0-3.87-.955-4.17-3.317a7.246,7.246,0,0,1-6.03,3.417c-4.572,0-6.281-3.216-6.281-7.536V59.9h5.526V73.718c0,3.115.856,4.22,2.813,4.22,2.111,0,3.568-1.959,3.92-3.969V59.9h5.526V78.291c0,.8.3,1.2.854,1.2a1.549,1.549,0,0,0,.854-.251v2.01A6.085,6.085,0,0,1-145.18,82.009Z" transform="translate(255.193 20.706)"/><path d="M-123.08,81.78V67.913c0-3.014-.652-4.17-2.663-4.17-1.959,0-3.366,1.909-3.666,3.969V81.78h-5.527V67.913c0-3.014-.7-4.17-2.663-4.17s-3.366,1.909-3.666,3.969V81.78h-5.527v-21.5l5.125-.6.2,3.518a7.168,7.168,0,0,1,5.979-3.617,5.346,5.346,0,0,1,5.526,3.767,7.84,7.84,0,0,1,6.331-3.767c4.623,0,6.078,3.215,6.078,7.536V81.78Z" transform="translate(263.083 20.532)"/></g></g></svg>